<svg width="100" height="100" viewBox="0 0 100 100" fill="none" xmlns="http://www.w3.org/2000/svg">
<g clip-path="url(#clip0_7_8)">
<rect width="100" height="100" fill="#09090B"/>
<path d="M46.9091 50.0455L38.0455 50.5909C37.8939 49.8333 37.5682 49.1515 37.0682 48.5455C36.5682 47.9242 35.9091 47.4318 35.0909 47.0682C34.2879 46.6894 33.3258 46.5 32.2045 46.5C30.7045 46.5 29.4394 46.8182 28.4091 47.4545C27.3788 48.0758 26.8636 48.9091 26.8636 49.9545C26.8636 50.7879 27.197 51.4924 27.8636 52.0682C28.5303 52.6439 29.6742 53.1061 31.2955 53.4545L37.6136 54.7273C41.0076 55.4242 43.5379 56.5455 45.2045 58.0909C46.8712 59.6364 47.7045 61.6667 47.7045 64.1818C47.7045 66.4697 47.0303 68.4773 45.6818 70.2045C44.3485 71.9318 42.5152 73.2803 40.1818 74.25C37.8636 75.2045 35.1894 75.6818 32.1591 75.6818C27.5379 75.6818 23.8561 74.7197 21.1136 72.7955C18.3864 70.8561 16.7879 68.2197 16.3182 64.8864L25.8409 64.3864C26.1288 65.7955 26.8258 66.8712 27.9318 67.6136C29.0379 68.3409 30.4545 68.7045 32.1818 68.7045C33.8788 68.7045 35.2424 68.3788 36.2727 67.7273C37.3182 67.0606 37.8485 66.2045 37.8636 65.1591C37.8485 64.2803 37.4773 63.5606 36.75 63C36.0227 62.4242 34.9015 61.9848 33.3864 61.6818L27.3409 60.4773C23.9318 59.7955 21.3939 58.6136 19.7273 56.9318C18.0758 55.25 17.25 53.1061 17.25 50.5C17.25 48.2576 17.8561 46.3258 19.0682 44.7045C20.2955 43.0833 22.0152 41.8333 24.2273 40.9545C26.4545 40.0758 29.0606 39.6364 32.0455 39.6364C36.4545 39.6364 39.9242 40.5682 42.4545 42.4318C45 44.2955 46.4848 46.8333 46.9091 50.0455ZM59.003 54.8182V75H49.3211V28.4545H58.7302V46.25H59.1393C59.9272 44.1894 61.1999 42.5758 62.9575 41.4091C64.7151 40.2273 66.9196 39.6364 69.5711 39.6364C71.9954 39.6364 74.109 40.1667 75.912 41.2273C77.7302 42.2727 79.1393 43.7803 80.1393 45.75C81.1545 47.7045 81.6545 50.0455 81.6393 52.7727V75H71.9575V54.5C71.9727 52.3485 71.4272 50.6742 70.3211 49.4773C69.2302 48.2803 67.6999 47.6818 65.7302 47.6818C64.412 47.6818 63.2454 47.9621 62.2302 48.5227C61.2302 49.0833 60.4423 49.9015 59.8666 50.9773C59.306 52.0379 59.0181 53.3182 59.003 54.8182Z" fill="#F4F4F5"/>
</g>
<defs>
<clipPath id="clip0_7_8">
<rect width="100" height="100" fill="white"/>
</clipPath>
</defs>
</svg>
